<mxfile host="app.diagrams.net" agent="Mozilla/5.0 (Windows NT 10.0; Win64; x64; rv:135.0) Gecko/20100101 Firefox/135.0" version="26.0.12">
  <diagram id="C5RBs43oDa-KdzZeNtuy" name="Page-1">
    <mxGraphModel dx="1728" dy="951" grid="1" gridSize="10" guides="1" tooltips="1" connect="1" arrows="1" fold="1" page="1" pageScale="1" pageWidth="827" pageHeight="1169" math="0" shadow="0">
      <root>
        <mxCell id="WIyWlLk6GJQsqaUBKTNV-0" />
        <mxCell id="WIyWlLk6GJQsqaUBKTNV-1" parent="WIyWlLk6GJQsqaUBKTNV-0" />
        <mxCell id="CNUF31vcTExXs5gQlFkN-82" style="edgeStyle=orthogonalEdgeStyle;rounded=0;orthogonalLoop=1;jettySize=auto;html=1;entryX=0.5;entryY=0;entryDx=0;entryDy=0;exitX=0.021;exitY=0.503;exitDx=0;exitDy=0;exitPerimeter=0;" edge="1" parent="WIyWlLk6GJQsqaUBKTNV-1" source="CNUF31vcTExXs5gQlFkN-0" target="CNUF31vcTExXs5gQlFkN-5">
          <mxGeometry relative="1" as="geometry">
            <Array as="points">
              <mxPoint x="601.84" y="180" />
              <mxPoint x="601.84" y="322" />
              <mxPoint x="243.84" y="322" />
              <mxPoint x="243.84" y="382" />
              <mxPoint x="339.84" y="382" />
            </Array>
          </mxGeometry>
        </mxCell>
        <mxCell id="CNUF31vcTExXs5gQlFkN-88" style="edgeStyle=orthogonalEdgeStyle;rounded=0;orthogonalLoop=1;jettySize=auto;html=1;entryX=0.5;entryY=0;entryDx=0;entryDy=0;shape=link;" edge="1" parent="WIyWlLk6GJQsqaUBKTNV-1" source="CNUF31vcTExXs5gQlFkN-0" target="CNUF31vcTExXs5gQlFkN-87">
          <mxGeometry relative="1" as="geometry" />
        </mxCell>
        <mxCell id="CNUF31vcTExXs5gQlFkN-0" value="&lt;div&gt;Sells&lt;/div&gt;" style="html=1;whiteSpace=wrap;aspect=fixed;shape=isoRectangle;" vertex="1" parent="WIyWlLk6GJQsqaUBKTNV-1">
          <mxGeometry x="611.84" y="155" width="83.33" height="50" as="geometry" />
        </mxCell>
        <mxCell id="CNUF31vcTExXs5gQlFkN-1" value="Company" style="swimlane;fontStyle=0;childLayout=stackLayout;horizontal=1;startSize=30;horizontalStack=0;resizeParent=1;resizeParentMax=0;resizeLast=0;collapsible=1;marginBottom=0;whiteSpace=wrap;html=1;" vertex="1" parent="WIyWlLk6GJQsqaUBKTNV-1">
          <mxGeometry x="51.84000000000006" y="172" width="140" height="120" as="geometry" />
        </mxCell>
        <mxCell id="CNUF31vcTExXs5gQlFkN-3" value="Name" style="text;strokeColor=none;fillColor=none;align=left;verticalAlign=middle;spacingLeft=4;spacingRight=4;overflow=hidden;points=[[0,0.5],[1,0.5]];portConstraint=eastwest;rotatable=0;whiteSpace=wrap;html=1;" vertex="1" parent="CNUF31vcTExXs5gQlFkN-1">
          <mxGeometry y="30" width="140" height="30" as="geometry" />
        </mxCell>
        <mxCell id="CNUF31vcTExXs5gQlFkN-4" value="&lt;div&gt;TaxID&lt;/div&gt;" style="text;strokeColor=none;fillColor=none;align=left;verticalAlign=middle;spacingLeft=4;spacingRight=4;overflow=hidden;points=[[0,0.5],[1,0.5]];portConstraint=eastwest;rotatable=0;whiteSpace=wrap;html=1;" vertex="1" parent="CNUF31vcTExXs5gQlFkN-1">
          <mxGeometry y="60" width="140" height="30" as="geometry" />
        </mxCell>
        <mxCell id="CNUF31vcTExXs5gQlFkN-11" value="&lt;div&gt;Address&lt;/div&gt;" style="text;strokeColor=none;fillColor=none;align=left;verticalAlign=middle;spacingLeft=4;spacingRight=4;overflow=hidden;points=[[0,0.5],[1,0.5]];portConstraint=eastwest;rotatable=0;whiteSpace=wrap;html=1;" vertex="1" parent="CNUF31vcTExXs5gQlFkN-1">
          <mxGeometry y="90" width="140" height="30" as="geometry" />
        </mxCell>
        <mxCell id="CNUF31vcTExXs5gQlFkN-85" value="" style="edgeStyle=orthogonalEdgeStyle;rounded=0;orthogonalLoop=1;jettySize=auto;html=1;" edge="1" parent="WIyWlLk6GJQsqaUBKTNV-1" source="CNUF31vcTExXs5gQlFkN-5" target="CNUF31vcTExXs5gQlFkN-34">
          <mxGeometry relative="1" as="geometry" />
        </mxCell>
        <mxCell id="CNUF31vcTExXs5gQlFkN-152" style="edgeStyle=orthogonalEdgeStyle;rounded=0;orthogonalLoop=1;jettySize=auto;html=1;" edge="1" parent="WIyWlLk6GJQsqaUBKTNV-1" source="CNUF31vcTExXs5gQlFkN-5" target="CNUF31vcTExXs5gQlFkN-148">
          <mxGeometry relative="1" as="geometry" />
        </mxCell>
        <mxCell id="CNUF31vcTExXs5gQlFkN-5" value="Car" style="swimlane;fontStyle=0;childLayout=stackLayout;horizontal=1;startSize=30;horizontalStack=0;resizeParent=1;resizeParentMax=0;resizeLast=0;collapsible=1;marginBottom=0;whiteSpace=wrap;html=1;" vertex="1" parent="WIyWlLk6GJQsqaUBKTNV-1">
          <mxGeometry x="270.17" y="437" width="140" height="184" as="geometry" />
        </mxCell>
        <mxCell id="CNUF31vcTExXs5gQlFkN-6" value="Type" style="text;strokeColor=none;fillColor=none;align=left;verticalAlign=middle;spacingLeft=4;spacingRight=4;overflow=hidden;points=[[0,0.5],[1,0.5]];portConstraint=eastwest;rotatable=0;whiteSpace=wrap;html=1;strokeWidth=1;fontSize=11;" vertex="1" parent="CNUF31vcTExXs5gQlFkN-5">
          <mxGeometry y="30" width="140" height="22" as="geometry" />
        </mxCell>
        <mxCell id="CNUF31vcTExXs5gQlFkN-7" value="Brand" style="text;strokeColor=none;fillColor=none;align=left;verticalAlign=middle;spacingLeft=4;spacingRight=4;overflow=hidden;points=[[0,0.5],[1,0.5]];portConstraint=eastwest;rotatable=0;whiteSpace=wrap;html=1;strokeWidth=1;fontSize=11;" vertex="1" parent="CNUF31vcTExXs5gQlFkN-5">
          <mxGeometry y="52" width="140" height="22" as="geometry" />
        </mxCell>
        <mxCell id="CNUF31vcTExXs5gQlFkN-8" value="Color" style="text;strokeColor=none;fillColor=none;align=left;verticalAlign=middle;spacingLeft=4;spacingRight=4;overflow=hidden;points=[[0,0.5],[1,0.5]];portConstraint=eastwest;rotatable=0;whiteSpace=wrap;html=1;strokeWidth=1;fontSize=11;" vertex="1" parent="CNUF31vcTExXs5gQlFkN-5">
          <mxGeometry y="74" width="140" height="22" as="geometry" />
        </mxCell>
        <mxCell id="CNUF31vcTExXs5gQlFkN-9" value="Price" style="text;strokeColor=none;fillColor=none;align=left;verticalAlign=middle;spacingLeft=4;spacingRight=4;overflow=hidden;points=[[0,0.5],[1,0.5]];portConstraint=eastwest;rotatable=0;whiteSpace=wrap;html=1;strokeWidth=1;fontSize=11;" vertex="1" parent="CNUF31vcTExXs5gQlFkN-5">
          <mxGeometry y="96" width="140" height="22" as="geometry" />
        </mxCell>
        <mxCell id="CNUF31vcTExXs5gQlFkN-86" value="RefID" style="text;strokeColor=none;fillColor=none;align=left;verticalAlign=middle;spacingLeft=4;spacingRight=4;overflow=hidden;points=[[0,0.5],[1,0.5]];portConstraint=eastwest;rotatable=0;whiteSpace=wrap;html=1;strokeWidth=1;fontSize=11;" vertex="1" parent="CNUF31vcTExXs5gQlFkN-5">
          <mxGeometry y="118" width="140" height="22" as="geometry" />
        </mxCell>
        <mxCell id="CNUF31vcTExXs5gQlFkN-156" value="Year" style="text;strokeColor=none;fillColor=none;align=left;verticalAlign=middle;spacingLeft=4;spacingRight=4;overflow=hidden;points=[[0,0.5],[1,0.5]];portConstraint=eastwest;rotatable=0;whiteSpace=wrap;html=1;strokeWidth=1;fontSize=11;" vertex="1" parent="CNUF31vcTExXs5gQlFkN-5">
          <mxGeometry y="140" width="140" height="22" as="geometry" />
        </mxCell>
        <mxCell id="CNUF31vcTExXs5gQlFkN-157" value="Engine" style="text;strokeColor=none;fillColor=none;align=left;verticalAlign=middle;spacingLeft=4;spacingRight=4;overflow=hidden;points=[[0,0.5],[1,0.5]];portConstraint=eastwest;rotatable=0;whiteSpace=wrap;html=1;strokeWidth=1;fontSize=11;" vertex="1" parent="CNUF31vcTExXs5gQlFkN-5">
          <mxGeometry y="162" width="140" height="22" as="geometry" />
        </mxCell>
        <mxCell id="CNUF31vcTExXs5gQlFkN-19" value="Contact Information" style="swimlane;fontStyle=0;childLayout=stackLayout;horizontal=1;startSize=30;horizontalStack=0;resizeParent=1;resizeParentMax=0;resizeLast=0;collapsible=1;marginBottom=0;whiteSpace=wrap;html=1;" vertex="1" parent="WIyWlLk6GJQsqaUBKTNV-1">
          <mxGeometry x="451.84" y="172" width="140" height="120" as="geometry" />
        </mxCell>
        <mxCell id="CNUF31vcTExXs5gQlFkN-20" value="Phone Number" style="text;strokeColor=none;fillColor=none;align=left;verticalAlign=middle;spacingLeft=4;spacingRight=4;overflow=hidden;points=[[0,0.5],[1,0.5]];portConstraint=eastwest;rotatable=0;whiteSpace=wrap;html=1;" vertex="1" parent="CNUF31vcTExXs5gQlFkN-19">
          <mxGeometry y="30" width="140" height="30" as="geometry" />
        </mxCell>
        <mxCell id="CNUF31vcTExXs5gQlFkN-21" value="Email" style="text;strokeColor=none;fillColor=none;align=left;verticalAlign=middle;spacingLeft=4;spacingRight=4;overflow=hidden;points=[[0,0.5],[1,0.5]];portConstraint=eastwest;rotatable=0;whiteSpace=wrap;html=1;" vertex="1" parent="CNUF31vcTExXs5gQlFkN-19">
          <mxGeometry y="60" width="140" height="30" as="geometry" />
        </mxCell>
        <mxCell id="CNUF31vcTExXs5gQlFkN-22" value="Mail Address" style="text;strokeColor=none;fillColor=none;align=left;verticalAlign=middle;spacingLeft=4;spacingRight=4;overflow=hidden;points=[[0,0.5],[1,0.5]];portConstraint=eastwest;rotatable=0;whiteSpace=wrap;html=1;" vertex="1" parent="CNUF31vcTExXs5gQlFkN-19">
          <mxGeometry y="90" width="140" height="30" as="geometry" />
        </mxCell>
        <mxCell id="CNUF31vcTExXs5gQlFkN-25" value="Configuration" style="swimlane;fontStyle=0;childLayout=stackLayout;horizontal=1;startSize=30;horizontalStack=0;resizeParent=1;resizeParentMax=0;resizeLast=0;collapsible=1;marginBottom=0;whiteSpace=wrap;html=1;" vertex="1" parent="WIyWlLk6GJQsqaUBKTNV-1">
          <mxGeometry x="460.16999999999996" y="497" width="140" height="60" as="geometry" />
        </mxCell>
        <mxCell id="CNUF31vcTExXs5gQlFkN-27" value="RefID" style="text;strokeColor=none;fillColor=none;align=left;verticalAlign=middle;spacingLeft=4;spacingRight=4;overflow=hidden;points=[[0,0.5],[1,0.5]];portConstraint=eastwest;rotatable=0;whiteSpace=wrap;html=1;" vertex="1" parent="CNUF31vcTExXs5gQlFkN-25">
          <mxGeometry y="30" width="140" height="30" as="geometry" />
        </mxCell>
        <mxCell id="CNUF31vcTExXs5gQlFkN-90" style="rounded=0;orthogonalLoop=1;jettySize=0;html=1;entryX=0.5;entryY=1;entryDx=0;entryDy=0;strokeColor=default;anchorPointDirection=0;arcSize=0;shape=link;" edge="1" parent="WIyWlLk6GJQsqaUBKTNV-1" source="CNUF31vcTExXs5gQlFkN-32" target="CNUF31vcTExXs5gQlFkN-89">
          <mxGeometry relative="1" as="geometry">
            <mxPoint x="190.1749999999998" y="42" as="targetPoint" />
          </mxGeometry>
        </mxCell>
        <mxCell id="CNUF31vcTExXs5gQlFkN-32" value="Has" style="html=1;whiteSpace=wrap;aspect=fixed;shape=isoRectangle;" vertex="1" parent="WIyWlLk6GJQsqaUBKTNV-1">
          <mxGeometry x="148.51000000000005" y="107" width="83.33" height="50" as="geometry" />
        </mxCell>
        <mxCell id="CNUF31vcTExXs5gQlFkN-66" style="edgeStyle=orthogonalEdgeStyle;rounded=0;orthogonalLoop=1;jettySize=auto;html=1;entryX=0;entryY=0.5;entryDx=0;entryDy=0;" edge="1" parent="WIyWlLk6GJQsqaUBKTNV-1" source="CNUF31vcTExXs5gQlFkN-34" target="CNUF31vcTExXs5gQlFkN-60">
          <mxGeometry relative="1" as="geometry" />
        </mxCell>
        <mxCell id="CNUF31vcTExXs5gQlFkN-34" value="Has" style="html=1;whiteSpace=wrap;aspect=fixed;shape=isoRectangle;" vertex="1" parent="WIyWlLk6GJQsqaUBKTNV-1">
          <mxGeometry x="353.51" y="332" width="83.33" height="50" as="geometry" />
        </mxCell>
        <mxCell id="CNUF31vcTExXs5gQlFkN-37" value="Employee" style="swimlane;fontStyle=0;childLayout=stackLayout;horizontal=1;startSize=30;horizontalStack=0;resizeParent=1;resizeParentMax=0;resizeLast=0;collapsible=1;marginBottom=0;whiteSpace=wrap;html=1;" vertex="1" parent="WIyWlLk6GJQsqaUBKTNV-1">
          <mxGeometry x="271.84000000000003" y="107" width="140" height="120" as="geometry" />
        </mxCell>
        <mxCell id="CNUF31vcTExXs5gQlFkN-38" value="Name" style="text;strokeColor=none;fillColor=none;align=left;verticalAlign=middle;spacingLeft=4;spacingRight=4;overflow=hidden;points=[[0,0.5],[1,0.5]];portConstraint=eastwest;rotatable=0;whiteSpace=wrap;html=1;" vertex="1" parent="CNUF31vcTExXs5gQlFkN-37">
          <mxGeometry y="30" width="140" height="30" as="geometry" />
        </mxCell>
        <mxCell id="CNUF31vcTExXs5gQlFkN-39" value="&lt;div&gt;Social Security ID&lt;/div&gt;" style="text;strokeColor=none;fillColor=none;align=left;verticalAlign=middle;spacingLeft=4;spacingRight=4;overflow=hidden;points=[[0,0.5],[1,0.5]];portConstraint=eastwest;rotatable=0;whiteSpace=wrap;html=1;" vertex="1" parent="CNUF31vcTExXs5gQlFkN-37">
          <mxGeometry y="60" width="140" height="30" as="geometry" />
        </mxCell>
        <mxCell id="CNUF31vcTExXs5gQlFkN-40" value="&lt;div&gt;Position&lt;/div&gt;" style="text;strokeColor=none;fillColor=none;align=left;verticalAlign=middle;spacingLeft=4;spacingRight=4;overflow=hidden;points=[[0,0.5],[1,0.5]];portConstraint=eastwest;rotatable=0;whiteSpace=wrap;html=1;" vertex="1" parent="CNUF31vcTExXs5gQlFkN-37">
          <mxGeometry y="90" width="140" height="30" as="geometry" />
        </mxCell>
        <mxCell id="CNUF31vcTExXs5gQlFkN-55" style="edgeStyle=orthogonalEdgeStyle;rounded=0;orthogonalLoop=1;jettySize=auto;html=1;entryX=0.5;entryY=0;entryDx=0;entryDy=0;" edge="1" parent="WIyWlLk6GJQsqaUBKTNV-1" source="CNUF31vcTExXs5gQlFkN-50" target="CNUF31vcTExXs5gQlFkN-19">
          <mxGeometry relative="1" as="geometry" />
        </mxCell>
        <mxCell id="CNUF31vcTExXs5gQlFkN-50" value="Has" style="html=1;whiteSpace=wrap;aspect=fixed;shape=isoRectangle;" vertex="1" parent="WIyWlLk6GJQsqaUBKTNV-1">
          <mxGeometry x="298.51000000000005" y="262" width="83.33" height="50" as="geometry" />
        </mxCell>
        <mxCell id="CNUF31vcTExXs5gQlFkN-51" style="edgeStyle=orthogonalEdgeStyle;rounded=0;orthogonalLoop=1;jettySize=auto;html=1;entryX=0.004;entryY=0.488;entryDx=0;entryDy=0;entryPerimeter=0;" edge="1" parent="WIyWlLk6GJQsqaUBKTNV-1" source="CNUF31vcTExXs5gQlFkN-1" target="CNUF31vcTExXs5gQlFkN-32">
          <mxGeometry relative="1" as="geometry" />
        </mxCell>
        <mxCell id="CNUF31vcTExXs5gQlFkN-52" style="edgeStyle=orthogonalEdgeStyle;rounded=0;orthogonalLoop=1;jettySize=auto;html=1;entryX=-0.015;entryY=1.094;entryDx=0;entryDy=0;entryPerimeter=0;" edge="1" parent="WIyWlLk6GJQsqaUBKTNV-1" source="CNUF31vcTExXs5gQlFkN-32" target="CNUF31vcTExXs5gQlFkN-38">
          <mxGeometry relative="1" as="geometry" />
        </mxCell>
        <mxCell id="CNUF31vcTExXs5gQlFkN-54" style="edgeStyle=orthogonalEdgeStyle;rounded=0;orthogonalLoop=1;jettySize=auto;html=1;entryX=0.524;entryY=0.088;entryDx=0;entryDy=0;entryPerimeter=0;" edge="1" parent="WIyWlLk6GJQsqaUBKTNV-1" source="CNUF31vcTExXs5gQlFkN-37" target="CNUF31vcTExXs5gQlFkN-50">
          <mxGeometry relative="1" as="geometry" />
        </mxCell>
        <mxCell id="CNUF31vcTExXs5gQlFkN-48" value="1" style="text;html=1;align=center;verticalAlign=middle;resizable=0;points=[];autosize=1;strokeColor=none;fillColor=none;" vertex="1" parent="WIyWlLk6GJQsqaUBKTNV-1">
          <mxGeometry x="451.84" y="127" width="140" height="30" as="geometry" />
        </mxCell>
        <mxCell id="CNUF31vcTExXs5gQlFkN-57" value="1" style="text;html=1;align=center;verticalAlign=middle;resizable=0;points=[];autosize=1;strokeColor=none;fillColor=none;" vertex="1" parent="WIyWlLk6GJQsqaUBKTNV-1">
          <mxGeometry x="86.84" y="140" width="30" height="30" as="geometry" />
        </mxCell>
        <mxCell id="CNUF31vcTExXs5gQlFkN-58" value="N" style="text;html=1;align=center;verticalAlign=middle;resizable=0;points=[];autosize=1;strokeColor=none;fillColor=none;" vertex="1" parent="WIyWlLk6GJQsqaUBKTNV-1">
          <mxGeometry x="236.84" y="170" width="30" height="30" as="geometry" />
        </mxCell>
        <mxCell id="CNUF31vcTExXs5gQlFkN-59" value="1" style="text;html=1;align=center;verticalAlign=middle;resizable=0;points=[];autosize=1;strokeColor=none;fillColor=none;" vertex="1" parent="WIyWlLk6GJQsqaUBKTNV-1">
          <mxGeometry x="336.84" y="230" width="30" height="30" as="geometry" />
        </mxCell>
        <mxCell id="CNUF31vcTExXs5gQlFkN-60" value="Configuration_list" style="swimlane;fontStyle=0;childLayout=stackLayout;horizontal=1;startSize=30;horizontalStack=0;resizeParent=1;resizeParentMax=0;resizeLast=0;collapsible=1;marginBottom=0;whiteSpace=wrap;html=1;" vertex="1" parent="WIyWlLk6GJQsqaUBKTNV-1">
          <mxGeometry x="461.8399999999999" y="347" width="140" height="20" as="geometry" />
        </mxCell>
        <mxCell id="CNUF31vcTExXs5gQlFkN-69" style="edgeStyle=orthogonalEdgeStyle;rounded=0;orthogonalLoop=1;jettySize=auto;html=1;" edge="1" parent="WIyWlLk6GJQsqaUBKTNV-1" source="CNUF31vcTExXs5gQlFkN-65" target="CNUF31vcTExXs5gQlFkN-25">
          <mxGeometry relative="1" as="geometry" />
        </mxCell>
        <mxCell id="CNUF31vcTExXs5gQlFkN-65" value="Has" style="html=1;whiteSpace=wrap;aspect=fixed;shape=isoRectangle;" vertex="1" parent="WIyWlLk6GJQsqaUBKTNV-1">
          <mxGeometry x="488.51" y="407" width="83.33" height="50" as="geometry" />
        </mxCell>
        <mxCell id="CNUF31vcTExXs5gQlFkN-68" style="edgeStyle=orthogonalEdgeStyle;rounded=0;orthogonalLoop=1;jettySize=auto;html=1;entryX=0.516;entryY=0.053;entryDx=0;entryDy=0;entryPerimeter=0;" edge="1" parent="WIyWlLk6GJQsqaUBKTNV-1" source="CNUF31vcTExXs5gQlFkN-60" target="CNUF31vcTExXs5gQlFkN-65">
          <mxGeometry relative="1" as="geometry" />
        </mxCell>
        <mxCell id="CNUF31vcTExXs5gQlFkN-70" value="1" style="text;html=1;align=center;verticalAlign=middle;resizable=0;points=[];autosize=1;strokeColor=none;fillColor=none;" vertex="1" parent="WIyWlLk6GJQsqaUBKTNV-1">
          <mxGeometry x="526.8399999999999" y="365" width="30" height="30" as="geometry" />
        </mxCell>
        <mxCell id="CNUF31vcTExXs5gQlFkN-71" value="N" style="text;html=1;align=center;verticalAlign=middle;resizable=0;points=[];autosize=1;strokeColor=none;fillColor=none;" vertex="1" parent="WIyWlLk6GJQsqaUBKTNV-1">
          <mxGeometry x="526.8399999999999" y="465" width="30" height="30" as="geometry" />
        </mxCell>
        <mxCell id="CNUF31vcTExXs5gQlFkN-72" value="1" style="text;html=1;align=center;verticalAlign=middle;resizable=0;points=[];autosize=1;strokeColor=none;fillColor=none;" vertex="1" parent="WIyWlLk6GJQsqaUBKTNV-1">
          <mxGeometry x="436.8399999999999" y="355" width="30" height="30" as="geometry" />
        </mxCell>
        <mxCell id="CNUF31vcTExXs5gQlFkN-75" style="edgeStyle=orthogonalEdgeStyle;rounded=0;orthogonalLoop=1;jettySize=auto;html=1;entryX=0.011;entryY=0.474;entryDx=0;entryDy=0;entryPerimeter=0;" edge="1" parent="WIyWlLk6GJQsqaUBKTNV-1" source="CNUF31vcTExXs5gQlFkN-1" target="CNUF31vcTExXs5gQlFkN-50">
          <mxGeometry relative="1" as="geometry">
            <mxPoint x="273.84000000000003" y="302" as="targetPoint" />
          </mxGeometry>
        </mxCell>
        <mxCell id="CNUF31vcTExXs5gQlFkN-77" value="1" style="text;html=1;align=center;verticalAlign=middle;resizable=0;points=[];autosize=1;strokeColor=none;fillColor=none;" vertex="1" parent="WIyWlLk6GJQsqaUBKTNV-1">
          <mxGeometry x="184.84" y="205" width="30" height="30" as="geometry" />
        </mxCell>
        <mxCell id="CNUF31vcTExXs5gQlFkN-81" style="edgeStyle=orthogonalEdgeStyle;rounded=0;orthogonalLoop=1;jettySize=auto;html=1;entryX=0.536;entryY=0.043;entryDx=0;entryDy=0;entryPerimeter=0;" edge="1" parent="WIyWlLk6GJQsqaUBKTNV-1" source="CNUF31vcTExXs5gQlFkN-37" target="CNUF31vcTExXs5gQlFkN-0">
          <mxGeometry relative="1" as="geometry">
            <Array as="points">
              <mxPoint x="461.84" y="109" />
              <mxPoint x="461.84" y="109" />
            </Array>
          </mxGeometry>
        </mxCell>
        <mxCell id="CNUF31vcTExXs5gQlFkN-83" value="N" style="text;html=1;align=center;verticalAlign=middle;resizable=0;points=[];autosize=1;strokeColor=none;fillColor=none;" vertex="1" parent="WIyWlLk6GJQsqaUBKTNV-1">
          <mxGeometry x="406.84" y="80" width="30" height="30" as="geometry" />
        </mxCell>
        <mxCell id="CNUF31vcTExXs5gQlFkN-84" value="1" style="text;html=1;align=center;verticalAlign=middle;resizable=0;points=[];autosize=1;strokeColor=none;fillColor=none;" vertex="1" parent="WIyWlLk6GJQsqaUBKTNV-1">
          <mxGeometry x="311.84" y="407" width="30" height="30" as="geometry" />
        </mxCell>
        <mxCell id="CNUF31vcTExXs5gQlFkN-87" value="&lt;div&gt;Price&lt;/div&gt;&lt;div&gt;Taxes&lt;/div&gt;&lt;div&gt;Date&lt;/div&gt;" style="rounded=1;whiteSpace=wrap;html=1;" vertex="1" parent="WIyWlLk6GJQsqaUBKTNV-1">
          <mxGeometry x="613.51" y="235" width="80" height="43" as="geometry" />
        </mxCell>
        <mxCell id="CNUF31vcTExXs5gQlFkN-89" value="&lt;div&gt;Salary&lt;/div&gt;&lt;div&gt;Start_date&lt;/div&gt;" style="rounded=1;whiteSpace=wrap;html=1;" vertex="1" parent="WIyWlLk6GJQsqaUBKTNV-1">
          <mxGeometry x="150.17000000000002" y="40" width="80" height="40" as="geometry" />
        </mxCell>
        <mxCell id="CNUF31vcTExXs5gQlFkN-101" style="edgeStyle=orthogonalEdgeStyle;rounded=0;orthogonalLoop=1;jettySize=auto;html=1;entryX=0.5;entryY=0;entryDx=0;entryDy=0;" edge="1" parent="WIyWlLk6GJQsqaUBKTNV-1" source="CNUF31vcTExXs5gQlFkN-91" target="CNUF31vcTExXs5gQlFkN-94">
          <mxGeometry relative="1" as="geometry" />
        </mxCell>
        <mxCell id="CNUF31vcTExXs5gQlFkN-91" value="Hosts" style="html=1;whiteSpace=wrap;aspect=fixed;shape=isoRectangle;" vertex="1" parent="WIyWlLk6GJQsqaUBKTNV-1">
          <mxGeometry x="80.84" y="335" width="78.33" height="47" as="geometry" />
        </mxCell>
        <mxCell id="CNUF31vcTExXs5gQlFkN-92" style="edgeStyle=orthogonalEdgeStyle;rounded=0;orthogonalLoop=1;jettySize=auto;html=1;entryX=0.519;entryY=0.066;entryDx=0;entryDy=0;entryPerimeter=0;" edge="1" parent="WIyWlLk6GJQsqaUBKTNV-1" source="CNUF31vcTExXs5gQlFkN-1" target="CNUF31vcTExXs5gQlFkN-91">
          <mxGeometry relative="1" as="geometry" />
        </mxCell>
        <mxCell id="CNUF31vcTExXs5gQlFkN-93" value="1" style="text;html=1;align=center;verticalAlign=middle;resizable=0;points=[];autosize=1;strokeColor=none;fillColor=none;" vertex="1" parent="WIyWlLk6GJQsqaUBKTNV-1">
          <mxGeometry x="118.51" y="292" width="30" height="30" as="geometry" />
        </mxCell>
        <mxCell id="CNUF31vcTExXs5gQlFkN-106" style="edgeStyle=orthogonalEdgeStyle;rounded=0;orthogonalLoop=1;jettySize=auto;html=1;entryX=0.5;entryY=0;entryDx=0;entryDy=0;" edge="1" parent="WIyWlLk6GJQsqaUBKTNV-1" source="CNUF31vcTExXs5gQlFkN-94" target="CNUF31vcTExXs5gQlFkN-103">
          <mxGeometry relative="1" as="geometry" />
        </mxCell>
        <mxCell id="CNUF31vcTExXs5gQlFkN-94" value="Catalog" style="swimlane;fontStyle=0;childLayout=stackLayout;horizontal=1;startSize=30;horizontalStack=0;resizeParent=1;resizeParentMax=0;resizeLast=0;collapsible=1;marginBottom=0;whiteSpace=wrap;html=1;" vertex="1" parent="WIyWlLk6GJQsqaUBKTNV-1">
          <mxGeometry x="50.00000000000003" y="422" width="140" height="90" as="geometry" />
        </mxCell>
        <mxCell id="CNUF31vcTExXs5gQlFkN-95" value="Last_Modified_Date" style="text;strokeColor=none;fillColor=none;align=left;verticalAlign=middle;spacingLeft=4;spacingRight=4;overflow=hidden;points=[[0,0.5],[1,0.5]];portConstraint=eastwest;rotatable=0;whiteSpace=wrap;html=1;" vertex="1" parent="CNUF31vcTExXs5gQlFkN-94">
          <mxGeometry y="30" width="140" height="30" as="geometry" />
        </mxCell>
        <mxCell id="CNUF31vcTExXs5gQlFkN-97" value="In_Sync_Bool" style="text;strokeColor=none;fillColor=none;align=left;verticalAlign=middle;spacingLeft=4;spacingRight=4;overflow=hidden;points=[[0,0.5],[1,0.5]];portConstraint=eastwest;rotatable=0;whiteSpace=wrap;html=1;" vertex="1" parent="CNUF31vcTExXs5gQlFkN-94">
          <mxGeometry y="60" width="140" height="30" as="geometry" />
        </mxCell>
        <mxCell id="CNUF31vcTExXs5gQlFkN-102" value="N" style="text;html=1;align=center;verticalAlign=middle;resizable=0;points=[];autosize=1;strokeColor=none;fillColor=none;" vertex="1" parent="WIyWlLk6GJQsqaUBKTNV-1">
          <mxGeometry x="120.17" y="392" width="30" height="30" as="geometry" />
        </mxCell>
        <mxCell id="CNUF31vcTExXs5gQlFkN-105" style="edgeStyle=orthogonalEdgeStyle;rounded=0;orthogonalLoop=1;jettySize=auto;html=1;entryX=0.125;entryY=0.002;entryDx=0;entryDy=0;entryPerimeter=0;" edge="1" parent="WIyWlLk6GJQsqaUBKTNV-1" source="CNUF31vcTExXs5gQlFkN-103" target="CNUF31vcTExXs5gQlFkN-5">
          <mxGeometry relative="1" as="geometry">
            <mxPoint x="291.84000000000003" y="432" as="targetPoint" />
            <Array as="points">
              <mxPoint x="232" y="402" />
              <mxPoint x="288" y="402" />
            </Array>
          </mxGeometry>
        </mxCell>
        <mxCell id="CNUF31vcTExXs5gQlFkN-130" style="edgeStyle=orthogonalEdgeStyle;rounded=0;orthogonalLoop=1;jettySize=auto;html=1;entryX=0.5;entryY=0;entryDx=0;entryDy=0;" edge="1" parent="WIyWlLk6GJQsqaUBKTNV-1" source="CNUF31vcTExXs5gQlFkN-103" target="CNUF31vcTExXs5gQlFkN-113">
          <mxGeometry relative="1" as="geometry">
            <Array as="points">
              <mxPoint x="260" y="609" />
              <mxPoint x="260" y="670" />
              <mxPoint x="810" y="670" />
              <mxPoint x="810" y="327" />
              <mxPoint x="708" y="327" />
            </Array>
          </mxGeometry>
        </mxCell>
        <mxCell id="CNUF31vcTExXs5gQlFkN-134" style="edgeStyle=orthogonalEdgeStyle;rounded=0;orthogonalLoop=1;jettySize=auto;html=1;" edge="1" parent="WIyWlLk6GJQsqaUBKTNV-1" source="CNUF31vcTExXs5gQlFkN-103" target="CNUF31vcTExXs5gQlFkN-137">
          <mxGeometry relative="1" as="geometry">
            <mxPoint x="130" y="660" as="targetPoint" />
            <Array as="points">
              <mxPoint x="213" y="640" />
              <mxPoint x="136" y="640" />
            </Array>
          </mxGeometry>
        </mxCell>
        <mxCell id="CNUF31vcTExXs5gQlFkN-103" value="Contains" style="rhombus;whiteSpace=wrap;html=1;" vertex="1" parent="WIyWlLk6GJQsqaUBKTNV-1">
          <mxGeometry x="169.84000000000003" y="584" width="87" height="50" as="geometry" />
        </mxCell>
        <mxCell id="CNUF31vcTExXs5gQlFkN-107" value="1" style="text;html=1;align=center;verticalAlign=middle;resizable=0;points=[];autosize=1;strokeColor=none;fillColor=none;" vertex="1" parent="WIyWlLk6GJQsqaUBKTNV-1">
          <mxGeometry x="116.84" y="510" width="30" height="30" as="geometry" />
        </mxCell>
        <mxCell id="CNUF31vcTExXs5gQlFkN-108" value="N" style="text;html=1;align=center;verticalAlign=middle;resizable=0;points=[];autosize=1;strokeColor=none;fillColor=none;" vertex="1" parent="WIyWlLk6GJQsqaUBKTNV-1">
          <mxGeometry x="256.84000000000003" y="410" width="30" height="30" as="geometry" />
        </mxCell>
        <mxCell id="CNUF31vcTExXs5gQlFkN-109" value="Option" style="swimlane;fontStyle=0;childLayout=stackLayout;horizontal=1;startSize=30;horizontalStack=0;resizeParent=1;resizeParentMax=0;resizeLast=0;collapsible=1;marginBottom=0;whiteSpace=wrap;html=1;" vertex="1" parent="WIyWlLk6GJQsqaUBKTNV-1">
          <mxGeometry x="636.8399999999999" y="497" width="140" height="120" as="geometry" />
        </mxCell>
        <mxCell id="CNUF31vcTExXs5gQlFkN-110" value="Price" style="text;strokeColor=none;fillColor=none;align=left;verticalAlign=middle;spacingLeft=4;spacingRight=4;overflow=hidden;points=[[0,0.5],[1,0.5]];portConstraint=eastwest;rotatable=0;whiteSpace=wrap;html=1;" vertex="1" parent="CNUF31vcTExXs5gQlFkN-109">
          <mxGeometry y="30" width="140" height="30" as="geometry" />
        </mxCell>
        <mxCell id="CNUF31vcTExXs5gQlFkN-111" value="RefID" style="text;strokeColor=none;fillColor=none;align=left;verticalAlign=middle;spacingLeft=4;spacingRight=4;overflow=hidden;points=[[0,0.5],[1,0.5]];portConstraint=eastwest;rotatable=0;whiteSpace=wrap;html=1;" vertex="1" parent="CNUF31vcTExXs5gQlFkN-109">
          <mxGeometry y="60" width="140" height="30" as="geometry" />
        </mxCell>
        <mxCell id="CNUF31vcTExXs5gQlFkN-120" value="Name" style="text;strokeColor=none;fillColor=none;align=left;verticalAlign=middle;spacingLeft=4;spacingRight=4;overflow=hidden;points=[[0,0.5],[1,0.5]];portConstraint=eastwest;rotatable=0;whiteSpace=wrap;html=1;" vertex="1" parent="CNUF31vcTExXs5gQlFkN-109">
          <mxGeometry y="90" width="140" height="30" as="geometry" />
        </mxCell>
        <mxCell id="CNUF31vcTExXs5gQlFkN-113" value="Options_list" style="swimlane;fontStyle=0;childLayout=stackLayout;horizontal=1;startSize=30;horizontalStack=0;resizeParent=1;resizeParentMax=0;resizeLast=0;collapsible=1;marginBottom=0;whiteSpace=wrap;html=1;" vertex="1" parent="WIyWlLk6GJQsqaUBKTNV-1">
          <mxGeometry x="638.5099999999999" y="347" width="140" height="20" as="geometry" />
        </mxCell>
        <mxCell id="CNUF31vcTExXs5gQlFkN-114" style="edgeStyle=orthogonalEdgeStyle;rounded=0;orthogonalLoop=1;jettySize=auto;html=1;" edge="1" parent="WIyWlLk6GJQsqaUBKTNV-1" source="CNUF31vcTExXs5gQlFkN-115" target="CNUF31vcTExXs5gQlFkN-109">
          <mxGeometry relative="1" as="geometry" />
        </mxCell>
        <mxCell id="CNUF31vcTExXs5gQlFkN-115" value="Has" style="html=1;whiteSpace=wrap;aspect=fixed;shape=isoRectangle;" vertex="1" parent="WIyWlLk6GJQsqaUBKTNV-1">
          <mxGeometry x="665.18" y="407" width="83.33" height="50" as="geometry" />
        </mxCell>
        <mxCell id="CNUF31vcTExXs5gQlFkN-116" style="edgeStyle=orthogonalEdgeStyle;rounded=0;orthogonalLoop=1;jettySize=auto;html=1;entryX=0.516;entryY=0.053;entryDx=0;entryDy=0;entryPerimeter=0;" edge="1" parent="WIyWlLk6GJQsqaUBKTNV-1" source="CNUF31vcTExXs5gQlFkN-113" target="CNUF31vcTExXs5gQlFkN-115">
          <mxGeometry relative="1" as="geometry" />
        </mxCell>
        <mxCell id="CNUF31vcTExXs5gQlFkN-117" value="1" style="text;html=1;align=center;verticalAlign=middle;resizable=0;points=[];autosize=1;strokeColor=none;fillColor=none;" vertex="1" parent="WIyWlLk6GJQsqaUBKTNV-1">
          <mxGeometry x="703.5099999999999" y="365" width="30" height="30" as="geometry" />
        </mxCell>
        <mxCell id="CNUF31vcTExXs5gQlFkN-118" value="N" style="text;html=1;align=center;verticalAlign=middle;resizable=0;points=[];autosize=1;strokeColor=none;fillColor=none;" vertex="1" parent="WIyWlLk6GJQsqaUBKTNV-1">
          <mxGeometry x="703.5099999999999" y="465" width="30" height="30" as="geometry" />
        </mxCell>
        <mxCell id="CNUF31vcTExXs5gQlFkN-121" value="References" style="html=1;whiteSpace=wrap;aspect=fixed;shape=isoRectangle;" vertex="1" parent="WIyWlLk6GJQsqaUBKTNV-1">
          <mxGeometry x="488.51" y="610" width="88.33" height="53" as="geometry" />
        </mxCell>
        <mxCell id="CNUF31vcTExXs5gQlFkN-122" style="edgeStyle=orthogonalEdgeStyle;rounded=0;orthogonalLoop=1;jettySize=auto;html=1;entryX=0.478;entryY=0.068;entryDx=0;entryDy=0;entryPerimeter=0;" edge="1" parent="WIyWlLk6GJQsqaUBKTNV-1" source="CNUF31vcTExXs5gQlFkN-25" target="CNUF31vcTExXs5gQlFkN-121">
          <mxGeometry relative="1" as="geometry" />
        </mxCell>
        <mxCell id="CNUF31vcTExXs5gQlFkN-123" style="edgeStyle=orthogonalEdgeStyle;rounded=0;orthogonalLoop=1;jettySize=auto;html=1;entryX=0.498;entryY=1.028;entryDx=0;entryDy=0;entryPerimeter=0;" edge="1" parent="WIyWlLk6GJQsqaUBKTNV-1" source="CNUF31vcTExXs5gQlFkN-121" target="CNUF31vcTExXs5gQlFkN-120">
          <mxGeometry relative="1" as="geometry" />
        </mxCell>
        <mxCell id="CNUF31vcTExXs5gQlFkN-124" value="1" style="text;html=1;align=center;verticalAlign=middle;resizable=0;points=[];autosize=1;strokeColor=none;fillColor=none;" vertex="1" parent="WIyWlLk6GJQsqaUBKTNV-1">
          <mxGeometry x="526.84" y="554" width="30" height="30" as="geometry" />
        </mxCell>
        <mxCell id="CNUF31vcTExXs5gQlFkN-125" value="0" style="text;html=1;align=center;verticalAlign=middle;resizable=0;points=[];autosize=1;strokeColor=none;fillColor=none;" vertex="1" parent="WIyWlLk6GJQsqaUBKTNV-1">
          <mxGeometry x="703.51" y="617" width="30" height="30" as="geometry" />
        </mxCell>
        <mxCell id="CNUF31vcTExXs5gQlFkN-126" value="(the ref is one-sided)" style="text;html=1;align=center;verticalAlign=middle;resizable=0;points=[];autosize=1;strokeColor=none;fillColor=none;fontSize=8;" vertex="1" parent="WIyWlLk6GJQsqaUBKTNV-1">
          <mxGeometry x="590" y="617" width="100" height="20" as="geometry" />
        </mxCell>
        <mxCell id="CNUF31vcTExXs5gQlFkN-131" value="1" style="text;html=1;align=center;verticalAlign=middle;resizable=0;points=[];autosize=1;strokeColor=none;fillColor=none;" vertex="1" parent="WIyWlLk6GJQsqaUBKTNV-1">
          <mxGeometry x="693.51" y="302" width="30" height="30" as="geometry" />
        </mxCell>
        <mxCell id="CNUF31vcTExXs5gQlFkN-137" value="Engine_list" style="swimlane;fontStyle=0;childLayout=stackLayout;horizontal=1;startSize=30;horizontalStack=0;resizeParent=1;resizeParentMax=0;resizeLast=0;collapsible=1;marginBottom=0;whiteSpace=wrap;html=1;" vertex="1" parent="WIyWlLk6GJQsqaUBKTNV-1">
          <mxGeometry x="66.00999999999988" y="663" width="140" height="20" as="geometry" />
        </mxCell>
        <mxCell id="CNUF31vcTExXs5gQlFkN-138" style="edgeStyle=orthogonalEdgeStyle;rounded=0;orthogonalLoop=1;jettySize=auto;html=1;entryX=0.5;entryY=0;entryDx=0;entryDy=0;" edge="1" parent="WIyWlLk6GJQsqaUBKTNV-1" source="CNUF31vcTExXs5gQlFkN-139" target="CNUF31vcTExXs5gQlFkN-143">
          <mxGeometry relative="1" as="geometry">
            <mxPoint x="134.5" y="813" as="targetPoint" />
          </mxGeometry>
        </mxCell>
        <mxCell id="CNUF31vcTExXs5gQlFkN-139" value="Contains" style="html=1;whiteSpace=wrap;aspect=fixed;shape=isoRectangle;" vertex="1" parent="WIyWlLk6GJQsqaUBKTNV-1">
          <mxGeometry x="93.50999999999995" y="711" width="83.33" height="50" as="geometry" />
        </mxCell>
        <mxCell id="CNUF31vcTExXs5gQlFkN-140" style="edgeStyle=orthogonalEdgeStyle;rounded=0;orthogonalLoop=1;jettySize=auto;html=1;entryX=0.516;entryY=0.053;entryDx=0;entryDy=0;entryPerimeter=0;" edge="1" parent="WIyWlLk6GJQsqaUBKTNV-1" source="CNUF31vcTExXs5gQlFkN-137" target="CNUF31vcTExXs5gQlFkN-139">
          <mxGeometry relative="1" as="geometry" />
        </mxCell>
        <mxCell id="CNUF31vcTExXs5gQlFkN-141" value="1" style="text;html=1;align=center;verticalAlign=middle;resizable=0;points=[];autosize=1;strokeColor=none;fillColor=none;" vertex="1" parent="WIyWlLk6GJQsqaUBKTNV-1">
          <mxGeometry x="131.00999999999988" y="681" width="30" height="30" as="geometry" />
        </mxCell>
        <mxCell id="CNUF31vcTExXs5gQlFkN-142" value="N" style="text;html=1;align=center;verticalAlign=middle;resizable=0;points=[];autosize=1;strokeColor=none;fillColor=none;" vertex="1" parent="WIyWlLk6GJQsqaUBKTNV-1">
          <mxGeometry x="236.83999999999986" y="731" width="30" height="30" as="geometry" />
        </mxCell>
        <mxCell id="CNUF31vcTExXs5gQlFkN-143" value="Engine" style="swimlane;fontStyle=0;childLayout=stackLayout;horizontal=1;startSize=30;horizontalStack=0;resizeParent=1;resizeParentMax=0;resizeLast=0;collapsible=1;marginBottom=0;whiteSpace=wrap;html=1;" vertex="1" parent="WIyWlLk6GJQsqaUBKTNV-1">
          <mxGeometry x="191.83999999999995" y="761" width="140" height="90" as="geometry" />
        </mxCell>
        <mxCell id="CNUF31vcTExXs5gQlFkN-145" value="RefID" style="text;strokeColor=none;fillColor=none;align=left;verticalAlign=middle;spacingLeft=4;spacingRight=4;overflow=hidden;points=[[0,0.5],[1,0.5]];portConstraint=eastwest;rotatable=0;whiteSpace=wrap;html=1;" vertex="1" parent="CNUF31vcTExXs5gQlFkN-143">
          <mxGeometry y="30" width="140" height="30" as="geometry" />
        </mxCell>
        <mxCell id="CNUF31vcTExXs5gQlFkN-146" value="Name" style="text;strokeColor=none;fillColor=none;align=left;verticalAlign=middle;spacingLeft=4;spacingRight=4;overflow=hidden;points=[[0,0.5],[1,0.5]];portConstraint=eastwest;rotatable=0;whiteSpace=wrap;html=1;" vertex="1" parent="CNUF31vcTExXs5gQlFkN-143">
          <mxGeometry y="60" width="140" height="30" as="geometry" />
        </mxCell>
        <mxCell id="CNUF31vcTExXs5gQlFkN-151" style="edgeStyle=orthogonalEdgeStyle;rounded=0;orthogonalLoop=1;jettySize=auto;html=1;entryX=1;entryY=0.5;entryDx=0;entryDy=0;" edge="1" parent="WIyWlLk6GJQsqaUBKTNV-1" source="CNUF31vcTExXs5gQlFkN-148" target="CNUF31vcTExXs5gQlFkN-145">
          <mxGeometry relative="1" as="geometry" />
        </mxCell>
        <mxCell id="CNUF31vcTExXs5gQlFkN-148" value="References" style="html=1;whiteSpace=wrap;aspect=fixed;shape=isoRectangle;" vertex="1" parent="WIyWlLk6GJQsqaUBKTNV-1">
          <mxGeometry x="307.67" y="669.5" width="88.33" height="53" as="geometry" />
        </mxCell>
        <mxCell id="CNUF31vcTExXs5gQlFkN-153" value="1" style="text;html=1;align=center;verticalAlign=middle;resizable=0;points=[];autosize=1;strokeColor=none;fillColor=none;" vertex="1" parent="WIyWlLk6GJQsqaUBKTNV-1">
          <mxGeometry x="349" y="634" width="30" height="30" as="geometry" />
        </mxCell>
        <mxCell id="CNUF31vcTExXs5gQlFkN-154" value="1" style="text;html=1;align=center;verticalAlign=middle;resizable=0;points=[];autosize=1;strokeColor=none;fillColor=none;" vertex="1" parent="WIyWlLk6GJQsqaUBKTNV-1">
          <mxGeometry x="331.84" y="808" width="30" height="30" as="geometry" />
        </mxCell>
        <mxCell id="CNUF31vcTExXs5gQlFkN-155" value="1" style="text;html=1;align=center;verticalAlign=middle;resizable=0;points=[];autosize=1;strokeColor=none;fillColor=none;" vertex="1" parent="WIyWlLk6GJQsqaUBKTNV-1">
          <mxGeometry x="106.84" y="633" width="30" height="30" as="geometry" />
        </mxCell>
      </root>
    </mxGraphModel>
  </diagram>
</mxfile>
